<svg xmlns="http://www.w3.org/2000/svg" viewBox="0 0 512 512" role="img" aria-label="WM-Tipp Icon">
  <rect width="512" height="512" rx="112" fill="#0f7a4f"/>
  <circle cx="256" cy="256" r="156" fill="#f8faf7"/>
  <path fill="#172033" d="M256 112 301 145 284 199 228 199 211 145z"/>
  <path fill="#172033" d="M139 213 187 181 232 213 214 267 158 267z"/>
  <path fill="#172033" d="M373 213 354 267 298 267 280 213 325 181z"/>
  <path fill="#172033" d="M190 337 208 283 264 283 282 337 237 370z"/>
  <path fill="#172033" d="M322 337 277 370 232 337 250 283 306 283z" opacity=".18"/>
  <path fill="#f6c453" d="M256 402c64 0 119-42 138-100 4-12 21-9 20 4-8 84-77 150-158 150S106 390 98 306c-1-13 16-16 20-4 19 58 74 100 138 100z"/>
</svg>
